<svg width="296" height="56" viewBox="0 0 296 56" fill="none" xmlns="http://www.w3.org/2000/svg">
<path fill-rule="evenodd" clip-rule="evenodd" d="M37.5437 18.0227L53.1784 17.9691L53.1787 18.0648L74.7623 8.70937L74.9243 42.0211L51.4766 32.1052L36.0353 32.1581L14.5093 41.5401L14.2542 8.22881L37.5437 18.0227ZM75.2703 17.8934L81.0334 17.8737L81.0818 32.0038L75.3187 32.0235L75.2703 17.8934ZM13.797 18.1041L8.03383 18.1238L8.08225 32.2539L13.8454 32.2342L13.797 18.1041Z" fill="white"/>
<path d="M123.612 38.8438L135.644 4.5H147.644L128.237 50H120.519L123.612 38.8438ZM123.237 4.5L124.644 39.875L124.331 50H116.925L111.831 4.5H123.237ZM169.569 41.5L171.912 26.5C171.954 25.9583 172.006 25.4271 172.069 24.9062C172.152 24.3646 172.089 23.9062 171.881 23.5312C171.694 23.1354 171.225 22.9479 170.475 22.9688C169.746 22.9479 169.225 23.125 168.912 23.5C168.621 23.8542 168.433 24.3125 168.35 24.875C168.287 25.4375 168.204 26 168.1 26.5625L158.069 26.625C158.152 24.8333 158.569 23.2396 159.319 21.8438C160.089 20.4479 161.1 19.2812 162.35 18.3438C163.6 17.4062 165.006 16.6979 166.569 16.2188C168.152 15.7396 169.798 15.5208 171.506 15.5625C173.735 15.5833 175.683 16.0417 177.35 16.9375C179.017 17.8125 180.267 19.0833 181.1 20.75C181.933 22.4167 182.235 24.3958 182.006 26.6875L179.631 41.5C179.444 42.7917 179.308 44.1146 179.225 45.4688C179.162 46.8229 179.298 48.1354 179.631 49.4062L179.6 50L169.881 50.0312C169.444 48.6771 169.225 47.2708 169.225 45.8125C169.246 44.3542 169.36 42.9167 169.569 41.5ZM172.819 29.3438L171.881 34.9688L169.756 34.9375C168.985 34.9583 168.319 35.1354 167.756 35.4688C167.194 35.7812 166.725 36.1979 166.35 36.7188C165.996 37.2188 165.714 37.7917 165.506 38.4375C165.298 39.0833 165.152 39.7604 165.069 40.4688C164.985 40.9271 164.923 41.375 164.881 41.8125C164.86 42.2292 164.933 42.5833 165.1 42.875C165.267 43.1458 165.652 43.2812 166.256 43.2812C166.881 43.2812 167.454 43.1354 167.975 42.8438C168.496 42.5521 168.933 42.1771 169.287 41.7188C169.642 41.2604 169.86 40.7396 169.944 40.1562L170.537 44.4062C170.142 45.1979 169.746 45.9688 169.35 46.7188C168.954 47.4688 168.506 48.1458 168.006 48.75C167.506 49.3542 166.892 49.8229 166.162 50.1562C165.454 50.5104 164.558 50.6875 163.475 50.6875C161.621 50.6875 160.027 50.2396 158.694 49.3438C157.381 48.4479 156.392 47.2708 155.725 45.8125C155.079 44.3542 154.787 42.7188 154.85 40.9062C154.912 38.8438 155.371 37.0729 156.225 35.5938C157.1 34.1146 158.246 32.9167 159.662 32C161.079 31.0833 162.652 30.4062 164.381 29.9688C166.11 29.5312 167.912 29.3125 169.787 29.3125L172.819 29.3438ZM214.869 2L206.556 50H196.525L204.869 2H214.869ZM239.637 50.625C237.429 50.5833 235.481 50.1771 233.794 49.4062C232.127 48.6354 230.752 47.5729 229.669 46.2188C228.606 44.8438 227.856 43.25 227.419 41.4375C226.981 39.6042 226.856 37.6146 227.044 35.4688L227.512 31.7812C227.804 29.4896 228.325 27.3542 229.075 25.375C229.825 23.3958 230.835 21.6562 232.106 20.1562C233.398 18.6562 234.971 17.5 236.825 16.6875C238.679 15.8542 240.867 15.4792 243.387 15.5625C245.658 15.625 247.533 16.1042 249.012 17C250.512 17.8958 251.669 19.0938 252.481 20.5938C253.314 22.0938 253.856 23.7812 254.106 25.6562C254.356 27.5312 254.367 29.4792 254.137 31.5L253.419 36.4062H230.544L231.7 29.8125L244.481 29.8438L244.7 28.5938C244.804 27.8438 244.877 27.1042 244.919 26.375C244.96 25.625 244.814 25 244.481 24.5C244.169 23.9792 243.533 23.6771 242.575 23.5938C241.408 23.5521 240.512 23.7917 239.887 24.3125C239.262 24.8125 238.794 25.4896 238.481 26.3438C238.189 27.1771 237.981 28.0833 237.856 29.0625C237.731 30.0208 237.627 30.9271 237.544 31.7812L237.075 35.5C236.992 36.3333 236.939 37.1562 236.919 37.9688C236.898 38.7604 236.992 39.5 237.2 40.1875C237.429 40.8542 237.804 41.3958 238.325 41.8125C238.867 42.2083 239.669 42.4271 240.731 42.4688C242.023 42.5104 243.242 42.3021 244.387 41.8438C245.533 41.3646 246.564 40.6667 247.481 39.75L251.169 46.2188C250.314 47.3438 249.231 48.2292 247.919 48.875C246.627 49.5 245.252 49.9479 243.794 50.2188C242.356 50.5104 240.971 50.6458 239.637 50.625ZM289.375 16.1875L288.094 23.5H270.687L272 16.1875H289.375ZM276.562 7.78125H286.625L281.25 39.0312C281.167 39.5729 281.125 40.0938 281.125 40.5938C281.125 41.0729 281.239 41.4688 281.469 41.7812C281.698 42.0938 282.146 42.2708 282.812 42.3125C283.167 42.3333 283.521 42.3229 283.875 42.2812C284.25 42.2396 284.604 42.1979 284.937 42.1562L284.156 49.7812C283.364 50.0938 282.552 50.3125 281.719 50.4375C280.906 50.5625 280.062 50.625 279.187 50.625C277.167 50.5833 275.531 50.1042 274.281 49.1875C273.031 48.2708 272.146 47.0312 271.625 45.4688C271.125 43.9062 270.958 42.1771 271.125 40.2812L276.562 7.78125Z" fill="white"/>
</svg>
