<svg width="328" height="56" viewBox="0 0 328 56" fill="none" xmlns="http://www.w3.org/2000/svg">
<g clip-path="url(#clip0_356_257)">
<path fill-rule="evenodd" clip-rule="evenodd" d="M53.5437 18.0227L69.1784 17.9691L69.1787 18.0648L90.7623 8.70937L90.9243 42.0211L67.4766 32.1052L52.0353 32.1581L30.5093 41.5401L30.2542 8.22881L53.5437 18.0227ZM91.2703 17.8934L97.0334 17.8737L97.0818 32.0038L91.3187 32.0235L91.2703 17.8934ZM29.797 18.1041L24.0338 18.1238L24.0823 32.2539L29.8454 32.2342L29.797 18.1041Z" fill="#1C1F1D"/>
<path d="M139.612 38.8438L151.644 4.5H163.644L144.237 50H136.519L139.612 38.8438ZM139.237 4.5L140.644 39.875L140.331 50H132.925L127.831 4.5H139.237ZM185.569 41.5L187.912 26.5C187.954 25.9583 188.006 25.4271 188.069 24.9062C188.152 24.3646 188.089 23.9062 187.881 23.5312C187.694 23.1354 187.225 22.9479 186.475 22.9688C185.746 22.9479 185.225 23.125 184.912 23.5C184.621 23.8542 184.433 24.3125 184.35 24.875C184.287 25.4375 184.204 26 184.1 26.5625L174.069 26.625C174.152 24.8333 174.569 23.2396 175.319 21.8438C176.089 20.4479 177.1 19.2812 178.35 18.3438C179.6 17.4062 181.006 16.6979 182.569 16.2188C184.152 15.7396 185.798 15.5208 187.506 15.5625C189.735 15.5833 191.683 16.0417 193.35 16.9375C195.017 17.8125 196.267 19.0833 197.1 20.75C197.933 22.4167 198.235 24.3958 198.006 26.6875L195.631 41.5C195.444 42.7917 195.308 44.1146 195.225 45.4688C195.162 46.8229 195.298 48.1354 195.631 49.4062L195.6 50L185.881 50.0312C185.444 48.6771 185.225 47.2708 185.225 45.8125C185.246 44.3542 185.36 42.9167 185.569 41.5ZM188.819 29.3438L187.881 34.9688L185.756 34.9375C184.985 34.9583 184.319 35.1354 183.756 35.4688C183.194 35.7812 182.725 36.1979 182.35 36.7188C181.996 37.2188 181.714 37.7917 181.506 38.4375C181.298 39.0833 181.152 39.7604 181.069 40.4688C180.985 40.9271 180.923 41.375 180.881 41.8125C180.86 42.2292 180.933 42.5833 181.1 42.875C181.267 43.1458 181.652 43.2812 182.256 43.2812C182.881 43.2812 183.454 43.1354 183.975 42.8438C184.496 42.5521 184.933 42.1771 185.287 41.7188C185.642 41.2604 185.86 40.7396 185.944 40.1562L186.537 44.4062C186.142 45.1979 185.746 45.9688 185.35 46.7188C184.954 47.4688 184.506 48.1458 184.006 48.75C183.506 49.3542 182.892 49.8229 182.162 50.1562C181.454 50.5104 180.558 50.6875 179.475 50.6875C177.621 50.6875 176.027 50.2396 174.694 49.3438C173.381 48.4479 172.392 47.2708 171.725 45.8125C171.079 44.3542 170.787 42.7188 170.85 40.9062C170.912 38.8438 171.371 37.0729 172.225 35.5938C173.1 34.1146 174.246 32.9167 175.662 32C177.079 31.0833 178.652 30.4062 180.381 29.9688C182.11 29.5312 183.912 29.3125 185.787 29.3125L188.819 29.3438ZM230.869 2L222.556 50H212.525L220.869 2H230.869ZM255.637 50.625C253.429 50.5833 251.481 50.1771 249.794 49.4062C248.127 48.6354 246.752 47.5729 245.669 46.2188C244.606 44.8438 243.856 43.25 243.419 41.4375C242.981 39.6042 242.856 37.6146 243.044 35.4688L243.512 31.7812C243.804 29.4896 244.325 27.3542 245.075 25.375C245.825 23.3958 246.835 21.6562 248.106 20.1562C249.398 18.6562 250.971 17.5 252.825 16.6875C254.679 15.8542 256.867 15.4792 259.387 15.5625C261.658 15.625 263.533 16.1042 265.012 17C266.512 17.8958 267.669 19.0938 268.481 20.5938C269.314 22.0938 269.856 23.7812 270.106 25.6562C270.356 27.5312 270.367 29.4792 270.137 31.5L269.419 36.4062H246.544L247.7 29.8125L260.481 29.8438L260.7 28.5938C260.804 27.8438 260.877 27.1042 260.919 26.375C260.96 25.625 260.814 25 260.481 24.5C260.169 23.9792 259.533 23.6771 258.575 23.5938C257.408 23.5521 256.512 23.7917 255.887 24.3125C255.262 24.8125 254.794 25.4896 254.481 26.3438C254.189 27.1771 253.981 28.0833 253.856 29.0625C253.731 30.0208 253.627 30.9271 253.544 31.7812L253.075 35.5C252.992 36.3333 252.939 37.1562 252.919 37.9688C252.898 38.7604 252.992 39.5 253.2 40.1875C253.429 40.8542 253.804 41.3958 254.325 41.8125C254.867 42.2083 255.669 42.4271 256.731 42.4688C258.023 42.5104 259.242 42.3021 260.387 41.8438C261.533 41.3646 262.564 40.6667 263.481 39.75L267.169 46.2188C266.314 47.3438 265.231 48.2292 263.919 48.875C262.627 49.5 261.252 49.9479 259.794 50.2188C258.356 50.5104 256.971 50.6458 255.637 50.625ZM305.375 16.1875L304.094 23.5H286.687L288 16.1875H305.375ZM292.562 7.78125H302.625L297.25 39.0312C297.167 39.5729 297.125 40.0938 297.125 40.5938C297.125 41.0729 297.239 41.4688 297.469 41.7812C297.698 42.0938 298.146 42.2708 298.812 42.3125C299.167 42.3333 299.521 42.3229 299.875 42.2812C300.25 42.2396 300.604 42.1979 300.937 42.1562L300.156 49.7812C299.364 50.0938 298.552 50.3125 297.719 50.4375C296.906 50.5625 296.062 50.625 295.187 50.625C293.167 50.5833 291.531 50.1042 290.281 49.1875C289.031 48.2708 288.146 47.0312 287.625 45.4688C287.125 43.9062 286.958 42.1771 287.125 40.2812L292.562 7.78125Z" fill="black"/>
</g>
<defs>
<clipPath id="clip0_356_257">
<rect width="328" height="56" fill="white"/>
</clipPath>
</defs>
</svg>
